<svg xmlns="http://www.w3.org/2000/svg" viewBox="0 0 256 256">
  <rect width="256" height="256" fill="none"/>
  <path d="M60 80 L60 140 Q60 160 80 160 Q100 160 100 140 L100 80" fill="none" stroke="#104c68" stroke-width="16" stroke-linecap="round" stroke-linejoin="round"/>
  <path d="M120 100 L120 160 M120 80 L120 90" fill="none" stroke="#104c68" stroke-width="16" stroke-linecap="round"/>
  <circle cx="120" cy="85" r="6" fill="#104c68"/>
  <path d="M150 100 Q150 80 170 80 Q190 80 190 100 L190 140 Q190 160 170 160 Q150 160 150 140 Z" fill="#50a898"/>
  <path d="M210 80 L210 160 M210 80 Q230 80 230 100 Q230 120 210 120" fill="none" stroke="#50a898" stroke-width="16" stroke-linecap="round" stroke-linejoin="round"/>
</svg>